<svg width="22" height="22" viewBox="0 0 22 22" fill="none" xmlns="http://www.w3.org/2000/svg">
<g id="icon-park-solid:handwashing-fluid">
<g id="Mask group">
<mask id="mask0_8_53" style="mask-type:luminance" maskUnits="userSpaceOnUse" x="3" y="0" width="17" height="22">
<g id="Group">
<g id="Group_2">
<path id="Vector (Stroke)" fill-rule="evenodd" clip-rule="evenodd" d="M6.96859 1.53508C7.5777 1.07881 8.34579 0.916656 9.07499 0.916656H14.2083C14.7146 0.916656 15.125 1.32706 15.125 1.83332C15.125 2.33958 14.7146 2.74999 14.2083 2.74999H11.9167V4.12499H13.2917C13.7979 4.12499 14.2083 4.5354 14.2083 5.04166V6.95902C14.5546 7.02305 14.8941 7.12335 15.221 7.25876C15.8327 7.51213 16.3885 7.8835 16.8567 8.35166C17.3248 8.81982 17.6962 9.37561 17.9495 9.98729C18.2029 10.599 18.3333 11.2546 18.3333 11.9167V12.3644C18.3333 12.8707 17.9229 13.2811 17.4167 13.2811C16.9104 13.2811 16.5 12.8707 16.5 12.3644V11.9167C16.5 11.4953 16.417 11.0781 16.2558 10.6889C16.0945 10.2996 15.8582 9.94594 15.5603 9.64802C15.2624 9.3501 14.9087 9.11378 14.5194 8.95254C14.1302 8.79131 13.713 8.70832 13.2917 8.70832H8.70832C7.85742 8.70832 7.04137 9.04634 6.43969 9.64802C5.83801 10.2497 5.49999 11.0658 5.49999 11.9167V16.0417C5.49999 16.8926 5.83801 17.7086 6.43969 18.3103C7.04137 18.912 7.85742 19.25 8.70832 19.25H11C11.5063 19.25 11.9167 19.6604 11.9167 20.1667C11.9167 20.6729 11.5063 21.0833 11 21.0833H8.70832C7.37119 21.0833 6.08882 20.5521 5.14333 19.6067C4.19783 18.6612 3.66666 17.3788 3.66666 16.0417V11.9167C3.66666 10.5795 4.19783 9.29716 5.14333 8.35166C5.86986 7.62513 6.7953 7.14323 7.79166 6.959V5.04166C7.79166 4.5354 8.20206 4.12499 8.70832 4.12499H10.0833V2.74999H9.07499C8.58594 2.74999 8.25403 2.86283 8.06771 3.0024C7.91986 3.11315 7.79166 3.2894 7.79166 3.66666C7.79166 4.17292 7.38125 4.58332 6.87499 4.58332C6.36873 4.58332 5.95832 4.17292 5.95832 3.66666C5.95832 2.76058 6.321 2.02016 6.96859 1.53508ZM9.62499 5.95832V6.87499H12.375V5.95832H9.62499Z" fill="white"/>
<path id="Vector" d="M18.3333 18.2279C18.3333 19.2986 17.4098 20.1667 16.2708 20.1667C15.1319 20.1667 14.2083 19.2986 14.2083 18.2279C14.2083 17.1568 15.5558 15.125 16.2708 15.125C16.9858 15.125 18.3333 17.1568 18.3333 18.2279Z" fill="white"/>
<path id="Vector (Stroke)_2" fill-rule="evenodd" clip-rule="evenodd" d="M15.2802 17.6339C15.1628 17.9252 15.125 18.1278 15.125 18.2279C15.125 18.7397 15.5839 19.25 16.2708 19.25C16.9578 19.25 17.4167 18.7397 17.4167 18.2279C17.4167 18.1278 17.3788 17.9252 17.2614 17.6339C17.1497 17.3569 16.9895 17.0573 16.8066 16.7819C16.6216 16.5033 16.4329 16.2789 16.2765 16.136C16.2746 16.1343 16.2727 16.1325 16.2708 16.1308C16.2689 16.1325 16.267 16.1343 16.2651 16.136C16.1087 16.2789 15.9201 16.5033 15.7351 16.7819C15.5522 17.0573 15.3919 17.3569 15.2802 17.6339ZM16.4247 16.0146C16.4247 16.0147 16.4232 16.0155 16.4204 16.0167C16.4233 16.0152 16.4247 16.0145 16.4247 16.0146ZM16.1213 16.0167C16.1184 16.0155 16.1169 16.0147 16.1169 16.0146C16.1169 16.0145 16.1183 16.0152 16.1213 16.0167ZM15.5366 14.4104C15.7183 14.3109 15.9723 14.2083 16.2708 14.2083C16.5693 14.2083 16.8233 14.3109 17.005 14.4104C17.1935 14.5136 17.3642 14.6465 17.5129 14.7823C17.8103 15.0539 18.0926 15.4044 18.3338 15.7676C18.5772 16.1341 18.7985 16.5433 18.9618 16.9485C19.1194 17.3394 19.25 17.7924 19.25 18.2279C19.25 19.8574 17.8618 21.0833 16.2708 21.0833C14.6799 21.0833 13.2917 19.8574 13.2917 18.2279C13.2917 17.7924 13.4223 17.3394 13.5798 16.9485C13.7432 16.5433 13.9645 16.1341 14.2078 15.7676C14.4491 15.4044 14.7314 15.0539 15.0287 14.7823C15.1774 14.6465 15.3482 14.5136 15.5366 14.4104Z" fill="white"/>
</g>
</g>
</mask>
<g mask="url(#mask0_8_53)">
<path id="Vector_2" d="M0 0H22V22H0V0Z" fill="#B0B0B0"/>
</g>
</g>
</g>
</svg>
